<svg xmlns="http://www.w3.org/2000/svg" viewBox="0 0 512 512" xml:space="preserve"><path style="fill:#118be8" d="m0 182.4 256 151.2L0 484.8zM512 484.8 256 333.6l256-151.2z"/><path style="fill:#118be8" d="M0 484.8h512L256 333.6z"/><path style="fill:#fff" d="M46.4 27.2v181.6L256 333.6l209.6-124V27.2z"/><path style="fill:#2f73bc" d="m0 182.4 46.4-35.2v62.4zM512 182.4l-46.4-35.2v62.4z"/><path style="fill:#d8d6d6" d="M99.2 75.3h313.6v11H99.2zM99.2 97.7h313.6v11H99.2zM99.2 120.1h313.6v11H99.2zM99.2 143.3h313.6v11H99.2zM99.2 165.7h313.6v11H99.2zM99.2 188.1h313.6v11H99.2z"/></svg>